<svg version="1.1" id="Layer_1" xmlns="http://www.w3.org/2000/svg" xmlns:xlink="http://www.w3.org/1999/xlink" x="0px" y="0px"
	 width="100%" viewBox="0 0 512 512" enable-background="new 0 0 512 512" xml:space="preserve">
<path fill="#000000" opacity="1.000000" stroke="none" 
	d="
M513.000000,140.000000 
	C513.000000,264.636353 513.000000,388.772705 513.000000,512.909058 
	C512.863708,512.939392 512.727356,512.996277 512.591064,512.996277 
	C342.132660,513.000000 171.674286,513.000000 1.107945,513.000000 
	C1.107945,342.447021 1.107945,171.893936 1.107945,1.170430 
	C171.666519,1.170430 342.333252,1.170430 513.000000,1.170430 
	C513.000000,47.189365 513.000000,93.344681 513.000000,140.000000 
M57.030510,407.495605 
	C117.138344,483.569580 195.617661,516.466248 291.702942,505.273254 
	C339.124268,499.749146 381.762512,480.743347 417.759796,449.231415 
	C490.005981,385.987335 518.238831,306.251953 502.762421,211.572845 
	C496.451111,172.962540 480.807983,137.790924 456.486969,107.088669 
	C395.587616,30.210690 315.708618,-2.014586 218.900696,10.997087 
	C157.600845,19.236221 106.443817,48.726219 66.701958,96.219223 
	C15.737396,157.123764 -2.055695,227.450058 11.824365,305.438019 
	C18.456398,342.701477 33.894100,376.528107 57.030510,407.495605 
z"/>
<path fill="#000000" opacity="1.000000" stroke="none" 
	d="
M129.797791,403.224609 
	C49.181091,331.853088 42.004726,207.932373 113.571487,127.350883 
	C184.837494,47.108006 308.388275,40.232288 389.334442,112.004402 
	C468.719818,182.392624 476.061462,306.906342 405.503357,386.228912 
	C333.415497,467.271362 210.371140,474.969879 129.797791,403.224609 
M115.321709,378.188171 
	C142.425293,409.424408 175.608643,430.433319 216.179199,440.013000 
	C241.289642,445.942169 266.377502,446.643158 291.513336,442.347351 
	C409.655884,422.156342 478.772919,296.185638 432.641907,185.615082 
	C397.859131,102.244911 308.832672,55.086605 220.776337,73.711487 
	C180.950760,82.135040 147.096970,101.436157 119.895615,131.835281 
	C82.336464,173.809814 67.001701,223.292206 72.675720,278.962799 
	C76.448784,315.982178 91.034164,348.926575 115.321709,378.188171 
z"/>
<path fill="#000000" opacity="1.000000" stroke="none" 
	d="
M257.100891,483.449890 
	C257.085297,487.617706 256.632782,491.535950 262.253693,494.151642 
	C254.790955,495.553711 248.919647,495.311005 242.199066,494.812622 
	C248.495361,488.518524 248.398376,462.399017 242.885605,457.597748 
	C243.148422,456.281891 244.331833,456.305145 245.205811,456.276489 
	C252.520111,456.036682 259.844482,455.487183 267.135193,456.669495 
	C271.774567,457.421844 275.219727,459.664978 276.627350,464.364014 
	C277.994019,468.926361 276.489563,472.607147 272.743317,475.282440 
	C270.592468,476.818420 270.481445,478.311707 271.934265,480.273438 
	C274.311096,483.482544 276.612885,486.748505 279.041107,489.917847 
	C280.338776,491.611603 282.008636,492.593475 284.267792,491.673615 
	C286.614166,490.718231 286.850769,488.766083 286.496338,486.690918 
	C285.152557,478.822937 283.676910,470.977325 282.359406,463.105133 
	C281.879456,460.237518 279.973633,458.662231 277.543610,456.990997 
	C286.532471,454.943024 295.286560,451.800903 304.450958,453.029419 
	C312.672974,454.131622 315.676819,463.390259 310.098022,469.760345 
	C307.989136,472.168396 308.238220,473.558289 310.350891,475.484894 
	C313.055298,477.951111 315.575317,480.618347 318.211029,483.161438 
	C319.996002,484.883728 321.953064,485.078522 324.121429,483.778229 
	C326.314301,482.463104 326.220886,480.549561 325.602539,478.533447 
	C323.260712,470.897919 320.828949,463.289764 318.516998,455.645325 
	C317.723053,453.020325 315.961182,451.500183 312.138275,450.531372 
	C318.755219,447.441895 324.435303,445.838440 330.696136,444.971252 
	C327.167328,448.109680 327.749634,451.393494 329.059448,455.030945 
	C330.917236,460.189941 332.354919,465.498840 334.045105,470.720062 
	C335.340607,474.722015 335.584869,479.601257 341.631104,479.361542 
	C341.019867,481.709564 339.503418,481.896637 338.353241,482.195404 
	C330.790985,484.159668 323.655884,487.503571 315.929962,488.964661 
	C312.508453,489.611755 309.907104,488.984070 307.392761,486.422791 
	C303.938202,482.903809 300.786804,478.997375 296.530579,476.203064 
	C294.366272,481.765137 296.106049,486.720947 301.799225,490.452545 
	C296.245575,493.220856 290.386780,492.983032 284.931793,494.282837 
	C275.070221,496.632629 267.411407,494.121307 262.862762,484.346161 
	C261.959167,482.404327 260.815857,480.126404 258.338318,479.407379 
	C256.772491,480.321533 257.292786,481.798370 257.100891,483.449890 
M300.811127,458.849365 
	C298.164856,456.517303 295.328308,455.229431 292.682556,458.591583 
	C291.241821,460.422424 293.564819,470.396210 295.284088,471.209778 
	C296.474945,471.773285 297.566681,471.317993 298.644379,470.868378 
	C302.957031,469.069153 303.798035,465.402161 300.811127,458.849365 
M258.776794,459.876465 
	C255.287247,463.979340 256.843292,468.624878 257.687317,473.015320 
	C258.051208,474.908142 260.234253,474.714600 261.940643,474.128601 
	C265.702972,472.836609 266.901215,470.006439 266.635590,466.313019 
	C266.317078,461.884003 263.759552,459.840668 258.776794,459.876465 
z"/>
<path fill="#000000" opacity="1.000000" stroke="none" 
	d="
M239.787048,57.398842 
	C230.217361,57.635712 221.398773,60.113506 212.079117,61.803589 
	C211.634171,55.210033 207.825653,52.291443 202.289078,50.662464 
	C201.344437,56.449730 202.305817,58.421680 208.240601,62.544281 
	C202.063080,65.227493 196.108124,66.404076 188.846298,67.483665 
	C194.311249,60.529438 190.850204,54.374035 189.038162,48.513428 
	C187.251205,42.733967 188.797195,35.010838 179.450089,31.592678 
	C186.046371,28.868641 191.646210,27.368334 198.456482,26.511419 
	C195.721710,31.594398 195.736084,35.879597 198.804810,39.881424 
	C205.502167,37.506901 210.025574,28.774599 205.994003,24.832275 
	C210.413605,22.500975 214.867783,21.563543 221.099823,21.116766 
	C216.259415,26.068491 213.231766,30.756603 209.681808,35.013020 
	C206.783722,38.487804 207.408508,40.754784 210.924942,43.091389 
	C215.083069,45.854378 218.992676,48.993546 223.170273,51.724503 
	C228.394547,55.139675 230.609497,54.040100 231.512497,47.976833 
	C231.716064,46.609871 231.052490,44.925228 232.906891,43.816681 
	C234.939423,44.849766 235.498978,47.056999 236.586166,48.806763 
	C238.595383,52.040558 241.481171,53.741604 245.237183,53.879349 
	C247.590256,53.965645 249.569046,53.086918 250.313873,50.672367 
	C250.989532,48.482056 249.995178,46.551773 248.215057,45.496014 
	C245.077957,43.635452 241.692535,42.198750 238.451782,40.506630 
	C233.722473,38.037285 230.436905,34.580936 230.670074,28.781624 
	C230.951950,21.771229 236.807449,17.141705 244.616806,17.967583 
	C247.573196,18.280233 250.483780,19.124418 253.335052,18.022926 
	C255.837006,22.265574 256.036438,24.193203 254.676895,30.006233 
	C252.865295,30.494600 252.459503,28.951323 251.787674,27.914404 
	C250.600113,26.081507 249.396835,24.260473 247.392242,23.245039 
	C244.493851,21.776842 241.250977,21.170162 239.389740,24.315277 
	C237.327957,27.799303 240.627533,29.328238 243.027496,30.689344 
	C245.335220,31.998138 247.870438,32.899784 250.274368,34.046051 
	C257.170471,37.334332 260.166748,42.768837 258.426392,48.752422 
	C256.539856,55.238644 250.679626,58.774742 243.180069,57.931225 
	C242.188522,57.819695 241.207794,57.611813 239.787048,57.398842 
z"/>
<path fill="#000000" opacity="1.000000" stroke="none" 
	d="
M347.276001,75.957474 
	C340.274719,73.527168 334.234711,69.493073 327.143982,67.973297 
	C325.107330,67.536781 324.521545,65.587624 323.930145,63.830738 
	C322.869080,60.678497 321.861786,57.507114 320.737091,54.377842 
	C320.293732,53.144180 319.755615,51.679192 318.154694,51.682232 
	C316.285370,51.685780 315.955811,53.380051 315.343445,54.740952 
	C313.872528,58.009914 314.659363,60.852654 317.188934,63.794819 
	C310.559052,63.572193 304.816742,61.628696 298.034149,58.794754 
	C306.777618,55.798153 306.488647,48.392799 308.091278,42.320393 
	C309.644592,36.434822 314.763855,30.627745 309.550049,24.189768 
	C311.040833,22.700663 312.557007,23.579191 313.860107,23.972494 
	C319.753815,25.751299 325.623474,27.618696 331.453827,29.595606 
	C336.027618,31.146469 339.360107,34.097752 339.896729,39.124550 
	C340.408844,43.921604 338.213074,47.466763 333.871552,49.638573 
	C333.576782,49.786026 333.298553,49.986263 333.050964,50.205257 
	C330.483429,52.475994 331.707062,60.864017 335.395264,65.844460 
	C338.248108,69.696884 341.366211,68.503563 344.441193,66.140350 
	C351.965515,60.357716 359.458710,54.534519 366.992157,48.763824 
	C368.399719,47.685623 369.629425,46.182793 372.216736,46.293633 
	C373.503937,60.095634 368.904602,73.869049 371.660736,88.429977 
	C365.301453,87.495537 360.823120,83.377625 354.428986,80.303238 
	C358.614532,78.700996 361.731140,77.119560 360.224091,73.319717 
	C358.722290,69.532928 354.767975,68.434959 351.293060,67.708069 
	C348.580872,67.140724 347.190094,69.358490 347.382141,72.179970 
	C347.465881,73.410622 348.898834,74.557343 347.276001,75.957474 
M326.159088,44.441395 
	C327.479797,43.625961 328.366791,42.445290 329.010101,41.058640 
	C330.853333,37.085423 329.614532,32.805721 326.132202,31.847965 
	C321.505463,30.575468 321.833496,34.797260 320.585327,37.197834 
	C320.287170,37.771309 320.232788,38.476311 320.092987,39.126556 
	C319.026215,44.088585 320.045197,45.137051 326.159088,44.441395 
M361.288757,63.296349 
	C361.184753,60.857399 360.053528,59.960640 357.826355,61.205551 
	C356.686462,61.842705 355.393921,62.980312 356.401642,64.326996 
	C357.954590,66.402306 359.701630,65.967949 361.288757,63.296349 
z"/>
<path fill="#000000" opacity="1.000000" stroke="none" 
	d="
M164.197601,441.500061 
	C165.335815,438.645203 163.145050,437.255920 162.210739,435.415527 
	C170.178497,433.763702 177.257004,439.177765 177.329712,446.921570 
	C177.377975,452.063568 177.355988,457.205719 178.679718,462.669128 
	C182.922897,460.993805 185.020538,457.265350 187.747025,454.388031 
	C195.937256,445.744659 198.481918,445.282074 208.746002,451.436371 
	C209.101349,451.649445 209.266083,452.180389 209.545883,452.602753 
	C201.840652,455.118591 192.440399,480.034729 196.656097,486.425629 
	C193.257126,487.208344 182.822128,483.566223 178.403809,479.734161 
	C183.789505,480.410614 184.844696,476.784058 186.092957,473.329407 
	C187.844254,468.482574 189.630463,463.648346 191.370941,458.797668 
	C191.463577,458.539551 191.270508,458.178864 191.045959,457.009125 
	C186.514526,459.784821 183.873718,464.045319 180.381073,467.324005 
	C176.954437,470.540802 174.237015,474.558838 169.397293,477.542572 
	C167.672897,467.208313 168.101364,457.505066 167.253983,447.948181 
	C166.725403,447.862762 166.196823,447.777344 165.668243,447.691925 
	C163.264297,454.312531 160.759613,460.899170 158.511063,467.572144 
	C157.725159,469.904449 160.392624,471.219727 161.712982,474.196777 
	C156.643219,473.412933 152.992798,471.706177 149.086197,469.222260 
	C155.186417,468.289124 156.027328,463.382355 157.647552,459.151978 
	C159.848145,453.406189 161.941177,447.619232 164.197601,441.500061 
z"/>
<path fill="#000000" opacity="1.000000" stroke="none" 
	d="
M424.896210,89.432251 
	C425.298401,88.046486 424.452515,86.814613 425.593414,85.564377 
	C429.073242,86.122589 431.196167,88.381882 433.163940,91.702751 
	C425.994781,93.458603 420.498901,97.846878 414.337738,100.943626 
	C408.348328,103.954033 403.048981,108.387276 396.271912,110.541183 
	C394.855286,105.617645 397.830994,102.302055 398.602844,98.533234 
	C399.175507,95.737007 402.232086,92.435028 399.610107,90.270012 
	C397.082001,88.182533 394.275085,91.653763 391.573151,92.628380 
	C387.833221,93.977417 385.112152,98.004875 379.578064,96.957794 
	C382.818298,83.388527 388.719635,70.845909 391.110779,56.618546 
	C395.886597,59.125668 399.461456,62.642014 403.615997,66.504616 
	C396.562195,69.772469 396.642761,76.487991 394.747589,82.081154 
	C393.766449,84.976875 395.284454,86.143425 398.284729,85.091255 
	C404.423431,82.938499 407.097351,77.515610 405.515717,68.646774 
	C411.416290,72.011253 415.726837,75.905022 420.040833,80.398811 
	C414.140594,82.452927 410.167755,90.492035 411.400909,97.681168 
	C416.455078,95.824219 421.128876,93.715805 424.896210,89.432251 
z"/>
<path fill="#000000" opacity="1.000000" stroke="none" 
	d="
M227.158569,492.394714 
	C216.326096,493.446930 208.346191,489.661072 204.479919,481.875031 
	C200.751343,474.366272 202.057175,464.437225 207.541092,458.599548 
	C213.503632,452.252319 222.601303,450.616821 231.482407,454.295502 
	C238.991684,457.405884 243.630341,464.714294 243.256516,472.846252 
	C242.818314,482.379303 237.221695,489.330444 227.158569,492.394714 
M230.628006,479.026794 
	C231.645477,473.859222 233.379059,468.774506 232.104477,463.371490 
	C231.239594,459.705292 229.562866,456.863708 225.497818,456.268311 
	C221.265244,455.648376 218.502060,457.789612 216.721313,461.353241 
	C213.915161,466.968903 212.956451,472.981293 213.315338,479.210602 
	C213.568253,483.600403 214.702682,487.577545 219.703598,488.638428 
	C224.733047,489.705322 227.350250,486.554810 229.275620,482.543884 
	C229.705017,481.649384 230.031448,480.705475 230.628006,479.026794 
z"/>
<path fill="#000000" opacity="1.000000" stroke="none" 
	d="
M273.786316,57.053459 
	C272.313751,56.627972 271.223358,56.290531 269.305176,55.696934 
	C276.742035,51.872051 275.147247,45.270466 275.782806,39.461754 
	C276.216614,35.496834 276.537201,31.517555 276.811554,27.538019 
	C276.940002,25.674868 276.855194,23.711607 274.605286,23.045740 
	C272.592224,22.449978 271.111481,23.574913 269.762665,24.923014 
	C268.630188,26.054899 268.324921,27.980358 266.199341,28.564180 
	C264.359070,25.306255 265.141663,21.989408 266.503021,19.157644 
	C267.598999,16.877960 270.415771,17.922117 272.473511,18.124823 
	C279.260498,18.793390 286.037689,19.577227 292.805298,20.423517 
	C300.923584,21.438717 302.052216,23.707472 298.372650,31.446905 
	C296.109161,30.952812 296.344971,28.655647 295.389343,27.248703 
	C294.189117,25.481638 292.772430,24.132816 290.486572,24.547604 
	C288.463501,24.914705 288.034302,26.677952 287.837341,28.343739 
	C286.998077,35.442680 286.172516,42.544903 285.494385,49.660450 
	C285.206238,52.684029 286.830292,55.013103 290.108032,57.481148 
	C284.041351,59.003052 279.095062,56.971794 273.786316,57.053459 
z"/>
<path fill="#000000" opacity="1.000000" stroke="none" 
	d="
M352.491425,476.435516 
	C349.656219,476.413605 348.468292,478.591248 346.230011,479.886841 
	C343.370850,475.988464 341.689148,471.761871 340.659332,466.959686 
	C343.331818,466.861664 344.066895,468.653412 345.302612,469.636597 
	C348.478729,472.163544 351.982544,473.452820 356.000946,472.494202 
	C358.864960,471.810974 360.745850,469.928375 360.707733,466.837616 
	C360.672424,463.976837 358.541382,462.825104 356.101898,462.415497 
	C353.155487,461.920746 350.171143,461.588593 347.189667,461.378052 
	C339.008148,460.800415 333.974030,456.629089 333.701019,450.066071 
	C333.422272,443.365356 338.486298,438.382385 346.659027,437.751251 
	C349.047119,437.566833 350.714752,436.625732 352.403107,434.732208 
	C355.370331,437.944519 356.652863,441.708374 357.776398,445.870514 
	C355.234772,446.494659 354.311737,444.506409 352.942383,443.584106 
	C349.705627,441.404083 346.359985,440.309021 342.654999,442.252686 
	C340.958923,443.142456 339.644287,444.573608 339.738190,446.580627 
	C339.838654,448.727875 341.597992,449.829407 343.409882,450.158569 
	C346.671417,450.751190 350.012634,450.889618 353.308289,451.313263 
	C362.683563,452.518494 367.268982,456.474182 367.280884,463.291443 
	C367.293121,470.274048 361.685516,475.379547 352.491425,476.435516 
z"/>
<path fill="#000000" opacity="1.000000" stroke="none" 
	d="
M421.242432,115.853470 
	C421.742523,117.945999 420.339722,119.148270 419.676056,120.628365 
	C418.556580,123.124924 417.869263,125.720322 418.566437,128.390762 
	C419.447906,131.766937 421.043610,135.146088 425.161682,134.542831 
	C429.562775,133.898148 429.481842,130.226242 428.973358,126.707008 
	C428.474762,123.256279 427.756775,119.804100 427.650970,116.336807 
	C427.446136,109.624176 430.635254,105.329933 436.284180,104.064827 
	C441.654419,102.862122 447.395325,106.131683 449.807159,111.933113 
	C450.869293,114.487915 451.297272,117.370453 454.535950,118.656975 
	C451.818390,122.152840 449.106842,124.803726 445.290924,126.063103 
	C444.039093,124.278938 445.282440,123.234932 445.805969,122.114777 
	C446.675262,120.254837 447.146240,118.311684 446.952515,116.302872 
	C446.610382,112.754707 445.426575,109.160637 441.210571,109.604362 
	C436.928131,110.055084 437.264160,113.719658 437.874084,117.031738 
	C438.535645,120.624184 439.500580,124.165047 439.440582,127.877884 
	C439.345612,133.754242 437.135895,137.491699 432.358704,139.341263 
	C427.246429,141.320541 422.904633,139.778625 419.110260,136.190445 
	C417.525635,134.691925 416.211029,132.938461 415.471863,130.872238 
	C414.488312,128.122803 412.965363,125.846642 409.647461,124.223701 
	C413.169373,120.450676 416.256927,117.009598 421.242432,115.853470 
z"/>
<path fill="#000000" opacity="1.000000" stroke="none" 
	d="
M153.302460,55.662987 
	C154.161209,60.602177 156.133148,64.621857 159.012817,68.154762 
	C165.039398,75.548470 173.354004,74.852814 178.226151,66.653381 
	C179.124985,65.140732 179.344269,63.100735 181.557724,62.275349 
	C184.247971,64.416466 182.722061,66.699104 181.632507,68.802422 
	C177.768753,76.261154 166.988739,80.915665 158.484787,78.894089 
	C150.037674,76.886032 144.009338,69.316063 143.706314,60.336273 
	C143.392410,51.035000 149.419769,42.624176 158.248596,39.823620 
	C161.902573,38.664555 166.376892,39.480698 168.886612,34.803268 
	C171.835175,38.680485 173.978989,42.166183 174.658508,47.818787 
	C168.749496,43.996105 163.562576,40.263950 157.513519,44.661171 
	C153.943512,47.256302 152.811783,50.971512 153.302460,55.662987 
z"/>
<path fill="#000000" opacity="1.000000" stroke="none" 
	d="
M124.622314,72.313080 
	C129.323578,74.895050 133.679306,77.345924 138.100372,79.672600 
	C142.331100,81.899109 146.388641,84.573608 151.418396,84.951508 
	C149.405014,89.047462 142.026199,94.803970 137.142517,96.054504 
	C138.166229,92.004807 136.633194,89.476852 132.555695,89.094696 
	C130.122116,88.866623 123.501183,94.833160 123.629677,96.930107 
	C123.872360,100.890488 126.433411,101.746071 131.306473,100.540611 
	C128.068634,105.366623 124.590874,107.407776 120.471504,109.727936 
	C121.027267,94.816780 114.710075,81.786163 113.143524,67.567986 
	C117.968880,67.342705 120.739113,70.728165 124.622314,72.313080 
M120.899361,83.824730 
	C120.224068,86.251755 121.088280,88.190018 122.714317,90.139496 
	C124.673615,89.424026 126.526390,88.670578 126.056267,86.409630 
	C125.568375,84.063179 123.889145,82.809944 120.899361,83.824730 
z"/>
<path fill="#000000" opacity="1.000000" stroke="none" 
	d="
M98.024429,126.463104 
	C95.083031,124.215851 93.911964,121.470001 96.331848,118.974617 
	C100.065941,115.123993 102.733124,118.788979 105.411140,121.463951 
	C107.604538,119.087044 106.096443,117.513252 104.747612,116.217377 
	C99.222420,110.909088 93.495750,105.807434 88.052452,100.418388 
	C85.629646,98.019730 83.196762,99.669235 79.866501,98.872147 
	C84.081566,94.285179 88.296631,89.698219 92.511696,85.111252 
	C92.933884,85.161743 93.356071,85.212242 93.778259,85.262733 
	C92.213753,91.404823 96.783829,93.859711 100.039711,97.062576 
	C103.364265,100.332993 106.954994,103.344444 110.148125,106.734047 
	C114.669121,111.533218 115.171898,115.745270 112.287506,120.787231 
	C109.232056,126.128189 104.743004,128.023499 98.024429,126.463104 
z"/>
<path fill="#000000" opacity="1.000000" stroke="none" 
	d="
M243.266052,436.064392 
	C237.724976,433.110413 234.906036,427.978973 231.085342,423.848419 
	C229.691971,422.342133 228.444351,421.215271 226.151215,420.986267 
	C216.061691,419.978699 214.987000,418.548767 218.121933,408.616211 
	C219.579880,403.996948 220.408646,399.244904 221.905121,394.676453 
	C223.376511,390.184570 222.781143,386.583160 218.766891,383.751526 
	C217.856491,383.109314 216.986649,382.189697 217.355011,380.693756 
	C219.124908,378.356049 222.627106,381.017242 224.795792,377.962738 
	C220.801132,378.120148 217.349319,377.205719 213.906494,376.277039 
	C211.120667,375.525543 207.903351,374.387421 207.135529,371.747711 
	C206.530212,369.666687 208.153473,366.937469 208.779297,364.525421 
	C211.940109,364.003479 213.121994,366.953400 215.459274,367.745117 
	C220.968155,369.611084 223.998840,367.742279 223.720551,361.903015 
	C223.570801,358.760742 223.883957,356.294525 227.295700,355.175812 
	C228.872192,354.658875 229.795135,353.444489 229.612732,351.732147 
	C229.181442,347.683563 230.723984,344.202637 232.700531,340.881989 
	C233.857727,338.937866 233.726608,337.125427 232.854324,335.183563 
	C230.008713,328.848602 229.181534,322.082825 228.655334,315.255524 
	C228.514999,313.434723 228.736832,311.313019 227.190109,310.115936 
	C224.099823,307.724121 220.858871,306.077118 221.743790,300.825562 
	C222.102020,298.699585 217.701141,297.343475 215.492477,295.622284 
	C212.678696,293.429535 212.603683,291.778015 215.205582,289.263336 
	C223.117599,281.616577 226.933716,271.645233 230.308548,261.487885 
	C231.179520,258.866486 230.546494,256.184570 227.494095,256.463898 
	C221.827225,256.982544 219.683121,253.774368 218.407394,249.297852 
	C216.920319,244.079666 217.062897,239.046417 221.137573,234.852798 
	C223.071106,232.862854 225.117966,230.983032 227.316086,228.857452 
	C224.800827,226.401581 222.945419,227.180222 220.980927,228.836990 
	C212.891296,235.659409 208.571625,235.689758 200.573196,228.586945 
	C197.310440,225.689529 193.853256,223.189865 190.128845,220.945511 
	C186.571579,218.801880 184.760605,219.130951 184.148483,223.658585 
	C183.473938,228.647995 179.758270,231.859299 175.497543,231.669388 
	C174.194382,231.611282 172.740372,231.536667 172.105957,230.052231 
	C171.570038,228.798279 172.142456,227.705109 173.046844,226.917343 
	C175.384079,224.881531 174.704620,223.624680 172.889297,221.261322 
	C170.449600,218.085098 169.051163,214.040100 167.543365,210.234283 
	C165.590317,205.304642 163.615753,204.375107 159.421616,207.508209 
	C149.265182,215.095245 138.773514,213.720978 128.310867,208.702148 
	C122.416954,205.874893 118.677788,195.700302 122.209450,188.426712 
	C127.774193,176.965866 123.750153,167.932373 117.530228,158.810486 
	C117.251747,158.402084 116.988274,157.962830 116.831802,157.499451 
	C116.735725,157.214951 116.856834,156.857132 116.900452,156.256332 
	C119.306763,154.729416 121.578087,155.955551 123.764900,156.986710 
	C131.450531,160.610718 139.080948,163.936768 147.871552,164.478378 
	C154.194550,164.867950 158.673920,162.609772 162.026810,157.929779 
	C168.513580,148.875504 170.999588,138.797791 168.368546,127.752960 
	C167.988312,126.156799 167.987854,124.804489 169.920609,123.513130 
	C173.645401,125.463387 174.917374,129.776993 177.485870,132.796677 
	C183.537033,139.910797 188.710419,147.735107 190.037064,157.367889 
	C191.279816,166.391586 187.719864,172.402756 179.528915,176.182251 
	C173.684036,178.879257 167.399338,179.626007 161.292435,181.197769 
	C157.794220,182.098145 152.428467,182.186890 152.882278,187.170959 
	C153.284576,191.589523 158.223190,191.372513 161.832367,191.630356 
	C164.811829,191.843201 167.814850,191.812866 170.805283,191.762329 
	C174.268753,191.703766 177.491440,192.280411 179.830307,195.082184 
	C183.890030,199.945419 189.423782,201.085709 195.183990,200.546158 
	C202.121841,199.896332 208.801971,200.670288 215.425323,202.489212 
	C217.515564,203.063232 219.422562,203.369049 220.683868,201.185593 
	C221.881454,199.112488 219.984558,198.253418 218.891556,197.099960 
	C214.564560,192.533615 214.466003,187.004929 216.448975,181.708572 
	C218.163300,177.129730 216.431747,174.732574 212.880859,172.751785 
	C211.143250,171.782486 209.233994,171.122559 207.408966,170.308014 
	C201.862854,167.832718 198.454300,162.387207 198.802246,156.384796 
	C198.906372,154.588638 199.255310,151.804398 201.521225,152.750336 
	C203.772232,153.690018 208.217133,151.490234 208.209442,156.011917 
	C208.200760,161.105347 211.117462,163.373016 215.088562,165.349609 
	C221.658554,168.619781 223.287613,172.595703 220.973389,179.515411 
	C219.508209,183.896408 221.470642,186.899017 224.530807,189.580292 
	C227.474655,192.159622 230.114960,191.604660 232.888763,189.069595 
	C234.945190,187.190155 237.392502,187.623001 239.921890,188.610550 
	C246.454910,191.161255 248.824509,189.216064 247.685867,182.350388 
	C247.389725,180.564697 248.011627,179.084396 248.626160,177.540649 
	C249.989807,174.115005 251.614838,170.707092 248.572189,167.273788 
	C247.853027,166.462311 247.660233,165.116104 248.574463,164.576523 
	C252.691406,162.146713 251.294754,158.266541 251.471924,154.741867 
	C251.974258,144.747955 262.822144,133.455170 273.810822,141.264984 
	C275.282532,142.310959 276.844818,142.250854 278.573944,142.031693 
	C288.330566,140.795105 295.645050,144.758987 299.573883,153.534973 
	C300.671600,155.987000 302.258087,157.620590 305.532349,158.131561 
	C297.368500,165.445999 297.505798,172.828552 303.316711,180.458206 
	C302.676086,183.123734 299.726990,182.837250 298.400024,184.671616 
	C298.851318,188.812469 300.903229,193.513962 294.465027,196.435440 
	C302.442963,196.963776 307.746674,200.671204 311.772980,206.612320 
	C313.684113,209.432358 316.464661,209.507568 319.234192,207.631592 
	C326.015106,203.038452 332.471771,198.093170 337.388458,191.392334 
	C338.709167,189.592422 339.623688,187.791641 339.817780,185.515656 
	C340.000153,183.376968 340.313538,181.164612 341.069702,179.174835 
	C343.878418,171.784210 342.916046,167.720734 337.465393,162.170059 
	C332.235382,156.844101 325.403900,154.673706 318.865753,151.828278 
	C314.906189,150.105057 310.645477,149.067429 307.013763,146.586868 
	C304.189270,144.657669 303.992828,142.908798 307.030396,140.933441 
	C309.287872,139.465408 313.035980,138.695908 312.320801,135.149063 
	C311.610565,131.627075 307.777039,131.492691 304.985596,130.973129 
	C295.040619,129.122116 285.763367,125.676666 277.126892,120.427773 
	C275.070374,119.177902 275.014740,119.269447 273.789032,116.604576 
	C274.954926,114.809601 276.705322,115.448570 278.297791,115.589867 
	C288.719330,116.514565 298.497223,114.204216 307.729919,109.522240 
	C315.134094,105.767502 314.994812,105.732651 320.471405,111.744164 
	C325.284546,117.027412 331.636322,116.125618 337.777161,115.446632 
	C340.239227,115.174416 342.629150,114.283577 345.064789,113.731033 
	C348.621521,112.924171 352.035645,113.477310 355.253021,115.098976 
	C356.909424,115.933846 358.541931,117.036263 358.476868,119.167450 
	C358.418945,121.063614 356.583649,121.236923 355.281464,121.872833 
	C349.462585,124.714401 349.072449,128.519653 354.510620,132.175110 
	C358.907532,135.130646 362.498444,138.744705 364.976532,143.358322 
	C368.478943,149.879028 366.867859,155.628586 360.804077,159.750031 
	C358.891632,161.049881 357.137909,162.607330 355.424713,164.170914 
	C352.478455,166.859879 351.890564,169.234100 354.523438,173.147552 
	C358.208099,178.624405 359.087128,185.184616 356.557404,191.649323 
	C355.425751,194.541321 356.531677,195.729492 359.004272,197.060211 
	C365.537018,200.576111 366.798431,204.859711 363.426178,210.498138 
	C362.817230,211.516312 362.337341,212.697403 360.908508,212.505280 
	C359.528320,212.319687 358.955444,211.111298 358.912018,209.963104 
	C358.707062,204.548798 353.650513,204.587738 350.543793,202.557938 
	C348.796387,201.416260 347.899231,203.324936 347.322937,204.682571 
	C345.361206,209.303802 343.675995,214.010483 344.022125,219.161346 
	C344.299042,223.281998 342.693176,226.487991 339.770477,229.377243 
	C336.344116,232.764359 333.146606,236.402588 330.050934,240.100281 
	C324.623077,246.583786 321.914978,247.066879 314.980164,242.386475 
	C312.862213,240.957077 311.039093,238.261078 308.004669,240.362488 
	C304.859589,242.540497 305.924774,245.783340 306.543915,248.601883 
	C307.185333,251.521912 308.268829,254.573593 312.009918,254.855316 
	C313.631409,254.977432 315.324341,254.710175 316.926300,254.355469 
	C318.208191,254.071640 319.404663,253.395416 320.633698,252.880676 
	C324.177704,251.396408 327.935303,250.644882 331.068420,253.238586 
	C333.992889,255.659531 330.366638,258.651825 331.531952,261.823151 
	C325.826111,261.204102 320.631744,262.286224 315.689453,261.910126 
	C308.948395,261.397125 303.880249,256.345306 298.759125,252.137375 
	C297.320618,250.955368 296.530701,248.096222 294.103699,249.438110 
	C291.766968,250.730087 290.695831,253.494614 291.550323,255.963821 
	C294.454132,264.354889 296.111938,273.230774 303.908783,279.368317 
	C309.427612,283.712646 313.223389,289.753265 313.177002,297.428864 
	C313.167328,299.029480 313.855255,300.673584 314.408417,302.231384 
	C316.433655,307.935089 317.833191,313.575989 316.535553,319.810059 
	C315.928497,322.726624 315.720581,326.071045 317.121643,329.133179 
	C317.667480,330.326141 317.943970,331.892853 316.807159,332.901276 
	C310.983948,338.066803 313.849640,343.500854 316.432343,348.722656 
	C318.016296,351.925171 320.285522,354.788666 322.179626,357.700806 
	C320.518646,359.867981 319.271240,357.442261 317.917908,357.862305 
	C316.805878,358.678894 317.630096,360.611481 315.743103,361.232330 
	C312.684265,360.403503 313.132721,356.647552 310.502441,354.317596 
	C308.708801,359.538635 308.721436,364.652313 308.553192,369.619904 
	C308.165283,381.070801 309.282806,392.390289 312.166107,403.544403 
	C313.119080,407.230835 315.275940,411.690247 311.227905,414.686340 
	C307.095428,417.744812 303.281525,414.513123 299.716736,412.605438 
	C292.873657,408.943359 287.430603,404.027191 286.090271,395.811584 
	C285.763336,393.807678 284.495148,392.676239 282.415863,392.273163 
	C280.464478,391.894867 278.537445,391.305511 276.663605,390.631409 
	C273.197174,389.384369 271.292816,388.589844 273.876160,383.676117 
	C278.570251,374.747437 279.763947,364.503113 281.809418,354.682404 
	C278.660858,353.015533 275.935303,355.431396 273.478363,353.983307 
	C271.007202,348.679871 271.491486,344.651672 277.707733,342.336426 
	C280.230896,341.396698 281.977997,339.266235 281.800659,336.079041 
	C281.740234,334.993042 282.107544,333.599823 282.801453,332.799805 
	C288.726685,325.968323 284.816925,319.255005 282.531494,312.642395 
	C281.332489,309.173096 278.154480,308.715424 275.436798,311.323700 
	C272.795624,313.858521 270.331848,316.548218 266.979095,318.243744 
	C264.839508,319.325684 264.285492,321.586578 263.875214,323.710968 
	C261.828705,334.307404 258.700439,344.745605 259.326660,355.738861 
	C259.460083,358.080902 259.359314,360.311493 260.758179,362.421967 
	C261.912445,364.163422 262.159790,366.385498 260.951141,368.137573 
	C256.084442,375.192444 260.226929,380.694397 263.857208,386.311371 
	C264.718872,387.644562 266.671906,388.250641 266.491791,390.669464 
	C264.547943,391.137085 262.146332,391.140472 261.254913,393.348755 
	C258.457916,392.931305 258.042877,390.066437 255.836319,389.311768 
	C253.541473,390.290527 254.423813,392.405273 254.334015,394.050385 
	C253.934891,401.363342 253.791489,408.692230 253.276886,415.995728 
	C253.109741,418.368103 254.080719,420.184937 254.925491,422.138458 
	C255.981293,424.579926 257.323334,426.912170 258.209045,429.409576 
	C259.958740,434.343109 257.421875,438.043121 252.212372,438.335083 
	C249.153870,438.506470 246.248367,437.861969 243.266052,436.064392 
M269.935547,229.244766 
	C271.017822,224.225555 272.072388,219.353043 265.793121,216.560440 
	C263.946259,215.739090 263.866821,213.034988 264.871155,211.613113 
	C268.180725,206.927597 265.346313,203.406616 263.024078,199.839218 
	C261.675262,197.767166 259.945709,195.898331 258.171661,194.158051 
	C255.396469,191.435669 251.989441,191.653564 248.917191,193.289291 
	C245.720810,194.991135 245.080261,197.957260 246.092026,201.467941 
	C249.303040,212.609589 249.458496,223.142700 239.923920,231.774597 
	C237.617508,233.862671 237.802536,236.901520 238.086395,239.768616 
	C238.721680,246.185440 237.692871,252.349426 235.613907,258.428070 
	C234.332596,262.174469 233.441956,266.054504 232.406784,269.763855 
	C236.795792,272.404785 237.235748,272.956818 237.143265,277.863098 
	C236.986664,286.171021 235.224945,294.118134 230.288040,300.958801 
	C227.822388,304.375275 229.010498,305.988586 232.290146,307.291321 
	C237.087219,309.196747 241.717255,311.838257 246.689789,312.927551 
	C261.959656,316.272705 264.733276,318.065643 274.149353,305.702606 
	C277.036530,301.911865 279.761017,297.954895 284.002808,295.223175 
	C290.073853,291.313354 296.506042,290.015076 303.533142,290.773743 
	C304.673096,290.896851 305.965088,291.079193 306.729584,289.928558 
	C307.676361,288.503601 306.657837,287.358307 305.876190,286.331512 
	C303.138397,282.735046 299.965759,279.552551 296.243622,276.974701 
	C293.676697,275.196899 291.559875,272.975037 291.044495,269.914734 
	C290.344055,265.755463 288.881409,261.870270 287.362396,258.016724 
	C286.466187,255.743164 286.711243,253.980026 287.821411,251.906769 
	C292.490723,243.186661 295.895447,234.023300 297.122070,224.129135 
	C297.290344,222.771881 296.979126,220.988190 298.976868,220.463150 
	C301.742889,221.350571 299.557648,224.649155 301.735046,225.916580 
	C303.038452,226.133118 303.809570,225.229431 304.402374,224.220764 
	C307.214386,219.436035 303.758728,207.233627 298.780334,204.719650 
	C296.411560,203.523499 293.896423,202.555069 291.357391,201.778091 
	C289.335144,201.159225 286.956360,198.994980 285.175110,202.006516 
	C283.546448,204.760056 285.465912,206.624268 287.234863,208.518341 
	C288.816895,210.212311 291.567902,211.233307 291.101166,214.697800 
	C286.507721,215.277695 283.989288,217.687347 285.178711,222.637421 
	C278.016296,221.515076 276.505188,222.598206 275.298248,229.452148 
	C275.069489,230.751343 275.070190,232.093658 275.003052,233.418015 
	C274.877625,235.891418 273.832275,237.988022 271.178650,237.561844 
	C268.417633,237.118423 267.591217,234.858948 268.481079,232.188644 
	C268.740814,231.409180 269.220917,230.703156 269.935547,229.244766 
M172.259613,146.336533 
	C168.322983,157.850784 161.680222,166.941376 149.978607,171.675415 
	C145.666046,173.420135 141.348145,175.258636 137.304108,177.536285 
	C130.370834,181.441162 123.759315,185.756149 124.462082,195.325577 
	C124.937393,201.797897 128.599762,205.686432 134.390152,207.746857 
	C139.017929,209.393600 143.831314,211.299210 148.062042,206.466888 
	C137.623856,200.711975 134.475906,195.668350 136.882935,188.788223 
	C138.758255,183.427902 143.296814,179.655746 147.196259,180.237381 
	C147.895096,182.885132 145.658081,183.357819 144.221817,184.679474 
	C140.870697,187.763229 139.322556,191.842438 140.237274,196.374878 
	C140.971390,200.012527 144.028564,201.494354 147.365250,201.491714 
	C151.629120,201.488358 155.065247,199.297195 157.986511,196.547806 
	C157.182678,194.064575 155.221359,194.185806 153.780121,193.546097 
	C150.174927,191.945847 148.489304,189.240997 148.538895,185.302597 
	C148.585297,181.616730 151.201340,180.628632 154.023010,179.851700 
	C160.429810,178.087616 166.845383,176.354767 173.267761,174.648224 
	C181.686249,172.411301 185.077621,168.288818 185.597977,159.472977 
	C185.958939,153.357544 183.667374,148.041107 180.253448,143.196365 
	C178.813309,141.152634 177.900940,138.283691 174.476089,138.045746 
	C172.699402,140.254211 172.735886,142.957199 172.259613,146.336533 
M287.468567,121.945686 
	C294.276611,125.167114 301.734589,126.292160 308.851349,128.521942 
	C322.892059,132.921097 333.498627,141.436752 340.293304,154.410019 
	C344.351837,162.159088 345.381348,162.739075 352.815186,158.590256 
	C353.659576,158.118988 354.639801,157.848404 355.588989,157.614639 
	C361.266876,156.216400 363.722656,151.142670 361.250275,145.780716 
	C359.234497,141.409180 355.664612,138.634888 351.207642,135.836349 
	C351.465302,140.386551 354.082275,143.522629 354.661011,147.241867 
	C354.898132,148.765533 354.891907,150.495560 352.823517,150.643555 
	C351.206543,150.759247 350.628326,149.485016 350.527252,147.976791 
	C349.944092,139.275772 343.748962,134.764404 336.986237,131.487854 
	C328.714966,127.480400 321.051117,123.340775 317.261353,114.273010 
	C316.310944,111.999016 314.185059,110.061111 311.193939,111.709824 
	C304.118195,115.610016 296.451874,117.703209 288.617920,119.343224 
	C287.521973,119.572670 286.101776,119.808846 287.468567,121.945686 
M257.925751,335.648193 
	C258.716309,331.403107 259.514801,327.159515 260.293884,322.912323 
	C260.662231,320.904388 260.388947,318.997192 258.006714,318.715851 
	C250.548950,317.835022 243.395081,315.662445 236.152542,313.859161 
	C233.418976,313.178528 232.542557,314.588013 232.444885,317.030914 
	C232.270187,321.400238 232.426483,325.907379 234.362015,329.735504 
	C237.493469,335.928986 237.626480,341.322876 233.769562,347.384552 
	C231.039261,351.675629 233.204285,355.539581 238.186707,356.823761 
	C241.875198,357.774536 245.663437,358.435394 249.447479,358.891754 
	C253.457291,359.375336 255.808441,357.700165 255.666687,353.267303 
	C255.484695,347.575470 256.581787,342.019287 257.925751,335.648193 
M241.197571,211.348007 
	C239.340744,208.342880 237.887436,205.194916 237.556961,201.610413 
	C237.298279,198.804718 235.722061,197.534546 233.142441,198.836761 
	C228.682571,201.088135 223.084000,202.032043 221.873474,208.052124 
	C219.397003,208.444809 217.784683,206.953232 215.900024,206.433121 
	C213.815460,205.857834 211.757797,205.142334 209.640900,204.734711 
	C202.469025,203.353714 200.733246,204.638123 199.587006,211.741302 
	C199.243652,213.869034 198.706726,215.974243 198.121140,218.051056 
	C197.737152,219.412903 197.736572,220.550842 198.541855,221.822571 
	C205.013977,232.043503 215.238861,232.092102 221.684479,221.964035 
	C222.631226,220.476379 222.823517,217.872757 225.631073,218.296036 
	C227.688995,223.920090 231.661987,225.677933 236.057938,222.511780 
	C239.470200,220.054108 242.239105,216.853134 241.197571,211.348007 
M304.466370,379.484711 
	C304.423950,374.016144 304.223633,368.554169 304.828461,363.087921 
	C305.432709,357.626678 303.905762,356.253235 298.250000,357.321136 
	C297.691040,353.054626 297.130890,348.779388 296.506592,344.014374 
	C292.795929,348.335205 294.674774,354.045929 291.367615,357.617218 
	C289.009308,357.332520 290.364807,354.593933 288.026489,354.249634 
	C286.094238,355.472992 285.833862,357.820557 285.160370,360.003296 
	C282.954163,367.153687 283.562531,374.997986 280.145020,381.780853 
	C278.170105,385.700592 279.215820,387.234558 283.155426,387.876190 
	C285.640686,388.281006 288.171356,388.799408 290.559021,387.880951 
	C294.928802,386.200134 299.432159,385.376068 304.160156,385.468140 
	C304.301422,383.478577 304.418121,381.835114 304.466370,379.484711 
M323.418854,220.321457 
	C321.222748,218.555023 319.078644,216.718430 316.816406,215.041214 
	C314.382141,213.236481 312.486023,213.621323 311.538605,216.718414 
	C310.321991,220.695480 308.966522,224.637619 307.939636,228.663361 
	C306.532837,234.178421 308.864471,236.312271 314.228485,234.728302 
	C315.993408,234.207169 317.742889,232.497986 319.703918,234.309570 
	C317.879303,239.904343 318.480896,241.728699 321.958069,241.257431 
	C323.513763,241.046570 324.712830,240.135025 325.776001,239.039597 
	C329.940399,234.748795 334.223785,230.564880 338.223724,226.125687 
	C341.608063,222.369720 341.495178,218.301346 338.378204,214.079575 
	C336.659851,213.529068 335.118835,216.294357 333.247467,214.238419 
	C333.247467,213.826370 333.117249,213.298187 333.269501,212.870590 
	C334.014496,210.778458 335.939606,208.632812 332.909302,206.793686 
	C329.992096,205.023148 325.150940,206.554184 322.116913,209.728882 
	C319.688934,212.269409 321.993958,213.378113 323.118011,215.098389 
	C324.110443,216.617233 327.050903,218.041718 323.418854,220.321457 
M234.171677,385.883026 
	C232.143448,387.726196 228.452957,387.400787 227.604980,390.741058 
	C225.806808,397.824341 224.083328,404.926727 222.364410,412.029785 
	C221.989761,413.578064 221.925339,415.256500 224.010391,415.488586 
	C226.779785,415.796783 229.759491,416.866089 232.329239,415.304443 
	C237.598633,412.102295 242.824371,409.047302 249.992050,410.950897 
	C248.935684,403.910095 252.429245,397.428833 248.030167,391.602325 
	C245.884140,392.326141 246.880554,395.302643 243.919006,395.085144 
	C241.350006,390.882019 241.798264,385.170166 238.805191,380.608032 
	C237.282349,382.406494 236.004227,383.915955 234.171677,385.883026 
M287.539886,316.403290 
	C288.300049,320.900055 291.015350,322.465973 295.387878,321.810883 
	C299.326935,321.220764 303.286774,320.756287 307.247162,320.325653 
	C310.297516,319.993958 311.794434,318.244843 312.814758,315.438354 
	C315.159210,308.989685 311.144928,304.331512 308.797394,299.096649 
	C306.746582,294.523590 303.111694,293.026154 298.706543,293.592834 
	C293.090851,294.315247 287.371063,295.336517 283.660187,300.711029 
	C284.509827,301.446320 284.731232,301.709259 285.012146,301.864532 
	C285.445892,302.104309 285.902924,302.345276 286.380188,302.456238 
	C291.964325,303.754425 292.217529,304.337280 289.025696,309.369843 
	C287.778046,311.336975 286.099426,313.120636 287.539886,316.403290 
M273.452271,160.053497 
	C266.364868,163.043625 263.011200,167.534485 267.075012,175.272385 
	C267.643494,176.354858 267.204590,177.920486 267.503113,179.199173 
	C268.451660,183.261780 271.225311,184.403015 276.480347,184.195084 
	C271.830505,179.020660 275.667328,175.487091 277.401489,171.573776 
	C276.493195,171.389740 275.985840,171.134506 275.547607,171.222672 
	C272.535980,171.828644 271.382965,170.016586 270.584686,167.596848 
	C270.224548,166.505249 269.357849,165.298553 270.462158,164.388885 
	C272.388580,162.802048 274.502106,163.465439 276.527283,164.403442 
	C276.978607,164.612488 277.421478,164.853210 277.892303,165.004150 
	C279.200104,165.423416 280.135193,164.815979 280.888153,163.817703 
	C281.790741,162.621033 281.905182,161.364273 280.951050,160.163040 
	C278.845795,157.512497 276.550140,156.696732 273.452271,160.053497 
M293.670166,402.660492 
	C296.168732,407.308777 300.383728,409.886169 305.000122,411.920197 
	C306.309692,412.497192 308.136108,413.403870 308.917297,411.508881 
	C309.775360,409.427490 307.706573,408.824982 306.323547,407.968048 
	C304.800018,407.024048 302.090088,408.291321 301.537659,405.520905 
	C303.254395,403.642517 305.904480,405.520233 307.714691,403.753387 
	C307.502441,399.461487 304.044708,401.907135 302.208557,401.186798 
	C300.756226,395.618683 296.715576,392.241852 291.092651,392.003937 
	C290.285797,395.694183 293.084137,398.552582 293.670166,402.660492 
M349.831177,119.157402 
	C349.913635,118.415756 349.630371,117.699005 348.947266,117.577087 
	C343.813965,116.660912 338.988770,118.096992 334.462860,120.187561 
	C332.388702,121.145638 332.206879,123.669380 334.045349,125.257149 
	C337.918945,128.602524 342.437927,130.856049 347.513428,132.478882 
	C346.543915,123.334015 346.543915,123.334015 349.831177,119.157402 
M247.428146,431.006012 
	C245.655838,427.463715 247.404938,422.155792 242.093170,421.132172 
	C242.085434,418.742065 246.023285,417.270874 242.015076,415.118286 
	C241.218567,418.730591 238.041138,417.674103 235.780609,418.342133 
	C237.238419,427.748230 239.783585,431.300720 246.645630,433.276703 
	C249.082031,433.978271 251.746902,435.025848 254.355423,432.738342 
	C252.139359,430.511169 250.002625,431.592987 247.428146,431.006012 
M228.484070,250.814941 
	C231.592529,253.992508 232.604034,251.106323 232.922333,248.899765 
	C233.484818,245.000214 233.492661,241.010910 233.574326,237.055893 
	C233.614365,235.117203 232.855392,233.306610 230.699509,233.005005 
	C228.453232,232.690765 227.390686,234.479736 226.951767,236.258118 
	C225.777161,241.017288 225.948196,245.739166 228.484070,250.814941 
M325.167633,150.165070 
	C327.795898,151.125351 329.941589,153.790009 333.482422,152.589935 
	C333.426147,149.705795 332.011139,147.825439 329.899475,146.379486 
	C325.354523,143.267288 319.973846,142.958618 314.798615,141.986679 
	C313.563721,141.754745 312.322449,142.043976 311.978546,143.383774 
	C311.518524,145.175720 313.032532,145.657104 314.291016,145.999039 
	C317.817902,146.957352 321.302490,147.997849 325.167633,150.165070 
M345.052002,196.673691 
	C343.897156,195.529251 342.707733,193.581619 341.067383,194.247681 
	C337.788391,195.579086 336.048859,198.772644 334.033203,201.524048 
	C333.842041,201.785019 334.016205,202.674240 334.296021,202.862335 
	C336.443481,204.305878 337.941467,207.218491 340.674072,207.136566 
	C343.347443,207.056412 343.916565,204.207901 344.642975,202.045044 
	C345.156158,200.517120 346.042999,199.005371 345.052002,196.673691 
M186.180679,209.711639 
	C186.826355,210.215805 187.511047,210.677765 188.110474,211.231964 
	C190.007919,212.986115 192.165314,213.695251 194.287506,211.964661 
	C196.007294,210.562256 196.134216,208.418228 194.973602,206.590561 
	C193.045227,203.553833 189.921738,203.705963 187.040710,204.534424 
	C184.612610,205.232651 184.487625,207.217789 186.180679,209.711639 
M232.054947,288.382263 
	C232.455765,285.594269 233.949814,282.715820 231.581955,280.035706 
	C226.006409,283.774078 225.174332,289.802277 229.452530,294.423126 
	C231.165070,293.073181 231.332870,291.023193 232.054947,288.382263 
M274.733521,193.390945 
	C276.296661,192.605591 277.358521,191.174438 275.892883,189.919571 
	C273.440643,187.820007 270.540527,186.265930 266.903961,188.125381 
	C267.956360,192.030899 270.033936,194.065292 274.733521,193.390945 
M288.118927,178.374893 
	C288.301910,177.747925 288.609192,177.127701 288.643646,176.492676 
	C288.733521,174.837433 289.864349,172.377930 287.172577,172.151260 
	C284.644409,171.938400 283.951508,174.389038 284.283417,176.358627 
	C284.656097,178.570587 284.752197,180.810684 284.687714,183.346588 
	C286.863892,182.219910 287.050842,180.436996 288.118927,178.374893 
M348.006348,191.245071 
	C347.259247,188.331726 346.512177,185.418396 345.672180,182.142639 
	C343.740265,184.600204 342.850006,186.994156 343.553894,189.437515 
	C344.082581,191.272736 344.714905,194.404938 348.006348,191.245071 
M232.555695,377.863617 
	C232.390533,379.290466 232.365906,380.671448 234.015442,381.925598 
	C234.783920,380.034576 236.275482,378.667175 235.752686,376.351898 
	C234.534668,376.067932 233.558121,376.325500 232.555695,377.863617 
z"/>
<path fill="#000000" opacity="1.000000" stroke="none" 
	d="
M263.587738,289.598206 
	C265.573425,286.108063 267.378693,282.898224 272.017090,283.331177 
	C269.632935,287.354614 266.069733,290.489960 265.211365,295.397125 
	C261.507507,293.888519 262.625702,291.874237 263.587738,289.598206 
z"/>
</svg>